<svg width="41" height="40" viewBox="0 0 41 40" fill="none" xmlns="http://www.w3.org/2000/svg">
<rect x="4.25" y="3.75" width="20" height="20" rx="5" fill="#FFCE65"/>
<path fill-rule="evenodd" clip-rule="evenodd" d="M14.2744 25.7498C14.6604 31.6133 19.5386 36.2498 25.4998 36.2498C31.713 36.2498 36.7498 31.213 36.7498 24.9998C36.7498 19.0386 32.1133 14.1604 26.2498 13.7744V15.8301C26.2498 17.1618 26.2499 18.2809 26.175 19.1967C26.0968 20.1541 25.9269 21.064 25.4869 21.9277C24.8157 23.2449 23.7449 24.3157 22.4277 24.9869C21.564 25.4269 20.6541 25.5968 19.6967 25.675C18.7809 25.7499 17.6618 25.7498 16.3301 25.7498H14.2744ZM14.3185 23.7498C14.8949 18.5353 19.0353 14.3949 24.2498 13.8185V15.7498C24.2498 18.5501 24.2498 19.9502 23.7048 21.0198C23.2255 21.9606 22.4606 22.7255 21.5198 23.2048C20.4502 23.7498 19.0501 23.7498 16.2498 23.7498H14.3185Z" fill="#FFB400"/>
</svg>
