<svg width="43" height="40" viewBox="0 0 43 40" fill="none" xmlns="http://www.w3.org/2000/svg">
<path fill-rule="evenodd" clip-rule="evenodd" d="M29.5073 23.75C32.5898 23.75 38.2573 14.6832 38.2573 9.90385C38.2573 5.12446 34.3398 1.25 29.5073 1.25C24.6748 1.25 20.7573 5.12446 20.7573 9.90385C20.7573 14.6832 26.4248 23.75 29.5073 23.75ZM29.5073 13.75C31.5784 13.75 33.2573 12.0711 33.2573 10C33.2573 7.92893 31.5784 6.25 29.5073 6.25C27.4363 6.25 25.7573 7.92893 25.7573 10C25.7573 12.0711 27.4363 13.75 29.5073 13.75Z" fill="#FFCE65"/>
<path fill-rule="evenodd" clip-rule="evenodd" d="M29.5073 25.75C30.3668 25.75 31.1411 25.4418 31.761 25.0874C32.2831 24.7888 32.785 24.4065 33.2573 23.9824V30.25C33.2573 32.7877 33.2573 34.0566 32.7634 35.0259C32.329 35.8785 31.6358 36.5717 30.7832 37.0061C29.8139 37.5 28.5451 37.5 26.0073 37.5H10.5073C7.96959 37.5 6.70072 37.5 5.73143 37.0061C4.87882 36.5717 4.18563 35.8785 3.7512 35.0259C3.25732 34.0566 3.25732 32.7877 3.25732 30.25V14.75C3.25732 12.2123 3.25732 10.9434 3.7512 9.97411C4.18563 9.1215 4.87882 8.4283 5.73143 7.99388C6.70072 7.5 7.96959 7.5 10.5073 7.5H19.0316C18.8522 8.27201 18.7573 9.07659 18.7573 9.90385C18.7573 11.4438 19.2016 13.166 19.8219 14.7952C20.4531 16.4531 21.3196 18.1523 22.2836 19.6843C23.2425 21.2083 24.339 22.6321 25.4558 23.7026C26.0141 24.2376 26.6189 24.7244 27.2537 25.0874C27.8736 25.4418 28.6478 25.75 29.5073 25.75ZM33.2573 21.0903C31.9252 22.684 30.5643 23.75 29.5073 23.75C26.4248 23.75 20.7573 14.6832 20.7573 9.90385C20.7573 9.06974 20.8766 8.2632 21.0993 7.5H26.0073C26.2538 7.5 26.4883 7.5 26.7118 7.50045C26.1182 8.16384 25.7573 9.03978 25.7573 10C25.7573 12.0711 27.4363 13.75 29.5073 13.75C31.212 13.75 32.651 12.6125 33.1068 11.0552C33.2573 11.9091 33.2573 13.0423 33.2573 14.75V21.0903ZM31.2573 10C31.2573 10.9665 30.4738 11.75 29.5073 11.75C28.5408 11.75 27.7573 10.9665 27.7573 10C27.7573 9.0335 28.5408 8.25 29.5073 8.25C30.4738 8.25 31.2573 9.0335 31.2573 10Z" fill="#FFB400"/>
<circle cx="29.5073" cy="10" r="3.75" fill="white"/>
</svg>
