<svg width="41" height="40" viewBox="0 0 41 40" fill="none" xmlns="http://www.w3.org/2000/svg">
<mask id="path-1-outside-1_217_163" maskUnits="userSpaceOnUse" x="6.13818" y="1.75" width="34" height="24" fill="black">
<rect fill="white" x="6.13818" y="1.75" width="34" height="24"/>
<path fill-rule="evenodd" clip-rule="evenodd" d="M8.68315 6.48005C8.13818 7.54961 8.13818 8.94974 8.13818 11.75V15.75C8.13818 18.5503 8.13818 19.9504 8.68315 21.02C9.16252 21.9608 9.92742 22.7257 10.8682 23.205C11.9378 23.75 13.3379 23.75 16.1382 23.75H30.1382C32.9384 23.75 34.3386 23.75 35.4081 23.205C36.3489 22.7257 37.1138 21.9608 37.5932 21.02C38.1382 19.9504 38.1382 18.5503 38.1382 15.75V11.75C38.1382 8.94974 38.1382 7.54961 37.5932 6.48005C37.1138 5.53924 36.3489 4.77433 35.4081 4.29497C34.3386 3.75 32.9384 3.75 30.1382 3.75H16.1382C13.3379 3.75 11.9378 3.75 10.8682 4.29497C9.92742 4.77433 9.16252 5.53924 8.68315 6.48005ZM23.1382 17.5C25.2093 17.5 26.8882 15.8211 26.8882 13.75C26.8882 11.6789 25.2093 10 23.1382 10C21.0671 10 19.3882 11.6789 19.3882 13.75C19.3882 15.8211 21.0671 17.5 23.1382 17.5Z"/>
</mask>
<path fill-rule="evenodd" clip-rule="evenodd" d="M8.68315 6.48005C8.13818 7.54961 8.13818 8.94974 8.13818 11.75V15.75C8.13818 18.5503 8.13818 19.9504 8.68315 21.02C9.16252 21.9608 9.92742 22.7257 10.8682 23.205C11.9378 23.75 13.3379 23.75 16.1382 23.75H30.1382C32.9384 23.75 34.3386 23.75 35.4081 23.205C36.3489 22.7257 37.1138 21.9608 37.5932 21.02C38.1382 19.9504 38.1382 18.5503 38.1382 15.75V11.75C38.1382 8.94974 38.1382 7.54961 37.5932 6.48005C37.1138 5.53924 36.3489 4.77433 35.4081 4.29497C34.3386 3.75 32.9384 3.75 30.1382 3.75H16.1382C13.3379 3.75 11.9378 3.75 10.8682 4.29497C9.92742 4.77433 9.16252 5.53924 8.68315 6.48005ZM23.1382 17.5C25.2093 17.5 26.8882 15.8211 26.8882 13.75C26.8882 11.6789 25.2093 10 23.1382 10C21.0671 10 19.3882 11.6789 19.3882 13.75C19.3882 15.8211 21.0671 17.5 23.1382 17.5Z" fill="#FFCE65"/>
<path d="M8.68315 6.48005L10.4652 7.38803L8.68315 6.48005ZM8.68315 21.02L6.90114 21.9279L6.90114 21.9279L8.68315 21.02ZM10.8682 23.205L11.7762 21.423H11.7762L10.8682 23.205ZM35.4081 23.205L34.5002 21.423L35.4081 23.205ZM37.5932 21.02L35.8112 20.112L37.5932 21.02ZM37.5932 6.48005L35.8112 7.38803V7.38803L37.5932 6.48005ZM35.4081 4.29497L36.3161 2.51295L36.3161 2.51295L35.4081 4.29497ZM10.8682 4.29497L11.7762 6.07698L10.8682 4.29497ZM10.1382 11.75C10.1382 10.3169 10.1397 9.3623 10.1997 8.62887C10.2577 7.9188 10.3603 7.59387 10.4652 7.38803L6.90114 5.57207C6.46105 6.43578 6.29117 7.3457 6.21295 8.30315C6.13663 9.23724 6.13818 10.3829 6.13818 11.75H10.1382ZM10.1382 15.75V11.75H6.13818V15.75H10.1382ZM10.4652 20.112C10.3603 19.9061 10.2577 19.5812 10.1997 18.8711C10.1397 18.1377 10.1382 17.1831 10.1382 15.75H6.13818C6.13818 17.1171 6.13663 18.2628 6.21295 19.1969C6.29117 20.1543 6.46105 21.0642 6.90114 21.9279L10.4652 20.112ZM11.7762 21.423C11.2117 21.1354 10.7528 20.6765 10.4652 20.112L6.90114 21.9279C7.57225 23.2451 8.64311 24.3159 9.96025 24.987L11.7762 21.423ZM16.1382 21.75C14.705 21.75 13.7505 21.7484 13.0171 21.6885C12.307 21.6305 11.9821 21.5279 11.7762 21.423L9.96025 24.987C10.824 25.4271 11.7339 25.597 12.6913 25.6752C13.6254 25.7516 14.7711 25.75 16.1382 25.75V21.75ZM30.1382 21.75H16.1382V25.75H30.1382V21.75ZM34.5002 21.423C34.2943 21.5279 33.9694 21.6305 33.2593 21.6885C32.5259 21.7484 31.5713 21.75 30.1382 21.75V25.75C31.5053 25.75 32.6509 25.7516 33.585 25.6752C34.5425 25.597 35.4524 25.4271 36.3161 24.987L34.5002 21.423ZM35.8112 20.112C35.5236 20.6765 35.0646 21.1354 34.5002 21.423L36.3161 24.987C37.6333 24.3159 38.7041 23.2451 39.3752 21.9279L35.8112 20.112ZM36.1382 15.75C36.1382 17.1831 36.1366 18.1377 36.0767 18.8711C36.0187 19.5812 35.9161 19.9061 35.8112 20.112L39.3752 21.9279C39.8153 21.0642 39.9852 20.1543 40.0634 19.1969C40.1397 18.2628 40.1382 17.1171 40.1382 15.75H36.1382ZM36.1382 11.75V15.75H40.1382V11.75H36.1382ZM35.8112 7.38803C35.9161 7.59387 36.0187 7.9188 36.0767 8.62887C36.1366 9.3623 36.1382 10.3169 36.1382 11.75H40.1382C40.1382 10.3829 40.1397 9.23724 40.0634 8.30315C39.9852 7.3457 39.8153 6.43578 39.3752 5.57207L35.8112 7.38803ZM34.5002 6.07698C35.0646 6.3646 35.5236 6.82354 35.8112 7.38803L39.3752 5.57207C38.7041 4.25493 37.6332 3.18407 36.3161 2.51295L34.5002 6.07698ZM30.1382 5.75C31.5713 5.75 32.5259 5.75156 33.2593 5.81148C33.9694 5.86949 34.2943 5.9721 34.5002 6.07698L36.3161 2.51295C35.4524 2.07287 34.5425 1.90299 33.585 1.82476C32.6509 1.74844 31.5053 1.75 30.1382 1.75V5.75ZM16.1382 5.75H30.1382V1.75H16.1382V5.75ZM11.7762 6.07698C11.9821 5.9721 12.307 5.86949 13.0171 5.81148C13.7505 5.75156 14.7051 5.75 16.1382 5.75V1.75C14.7711 1.75 13.6254 1.74844 12.6913 1.82476C11.7339 1.90299 10.824 2.07287 9.96025 2.51295L11.7762 6.07698ZM10.4652 7.38803C10.7528 6.82354 11.2117 6.3646 11.7762 6.07698L9.96025 2.51295C8.64312 3.18407 7.57225 4.25493 6.90114 5.57207L10.4652 7.38803ZM24.8882 13.75C24.8882 14.7165 24.1047 15.5 23.1382 15.5V19.5C26.3138 19.5 28.8882 16.9256 28.8882 13.75H24.8882ZM23.1382 12C24.1047 12 24.8882 12.7835 24.8882 13.75H28.8882C28.8882 10.5744 26.3138 8 23.1382 8V12ZM21.3882 13.75C21.3882 12.7835 22.1717 12 23.1382 12V8C19.9625 8 17.3882 10.5744 17.3882 13.75H21.3882ZM23.1382 15.5C22.1717 15.5 21.3882 14.7165 21.3882 13.75H17.3882C17.3882 16.9256 19.9625 19.5 23.1382 19.5V15.5Z" fill="white" mask="url(#path-1-outside-1_217_163)"/>
<path fill-rule="evenodd" clip-rule="evenodd" d="M6.13828 16.2744C4.88587 16.3186 4.05826 16.4434 3.36823 16.795C2.42742 17.2743 1.66252 18.0392 1.18315 18.98C0.638184 20.0496 0.638184 21.4497 0.638184 24.25V28.25C0.638184 31.0503 0.638184 32.4504 1.18315 33.52C1.66252 34.4608 2.42742 35.2257 3.36823 35.705C4.43779 36.25 5.83792 36.25 8.63818 36.25H22.6382C25.4384 36.25 26.8386 36.25 27.9081 35.705C28.8489 35.2257 29.6138 34.4608 30.0932 33.52C30.6382 32.4504 30.6382 31.0503 30.6382 28.25V25.7499C30.5007 25.75 30.3608 25.75 30.2185 25.75H16.0579C14.7262 25.75 13.6071 25.7501 12.6913 25.6752C11.7339 25.597 10.824 25.4271 9.96025 24.987C8.64312 24.3159 7.57225 23.2451 6.90114 21.9279C6.46106 21.0642 6.29118 20.1543 6.21295 19.1969C6.1466 18.3848 6.13911 17.4128 6.13828 16.2744ZM8.13831 16.2501C8.14024 18.7209 8.17164 20.0161 8.68315 21.02C9.16252 21.9608 9.92742 22.7257 10.8682 23.205C11.9378 23.75 13.3379 23.75 16.1382 23.75H30.1382C30.31 23.75 30.4765 23.75 30.6381 23.7499C30.6361 21.2791 30.6047 19.9839 30.0932 18.98C29.6138 18.0392 28.8489 17.2743 27.9081 16.795C27.3632 16.5173 26.7324 16.3811 25.8744 16.3143C25.1902 17.0441 24.2174 17.5 23.1382 17.5C22.0276 17.5 21.0297 17.0172 20.3431 16.25H8.63818C8.46637 16.25 8.29983 16.25 8.13831 16.2501Z" fill="#FFB400"/>
</svg>
