<svg width="41" height="40" viewBox="0 0 41 40" fill="none" xmlns="http://www.w3.org/2000/svg">
<g clip-path="url(#clip0_218_31)">
<path fill-rule="evenodd" clip-rule="evenodd" d="M27.8618 5C24.4405 5 21.696 7.82747 21.7977 11.2472L21.8281 12.2682C21.9252 15.5306 24.598 18.125 27.8618 18.125C31.1257 18.125 33.7984 15.5306 33.8955 12.2682L33.9259 11.2472C34.0277 7.82746 31.2831 5 27.8618 5ZM36.4556 33.75C38.6129 33.75 40.3618 32.0011 40.3618 29.8438C40.3618 25.1695 34.7653 21.25 27.8618 21.25C20.9582 21.25 15.3618 25.1695 15.3618 29.8438C15.3618 32.0011 17.1107 33.75 19.2681 33.75H36.4556Z" fill="#FFCE65"/>
<path fill-rule="evenodd" clip-rule="evenodd" d="M21.4556 33.7499C23.6129 33.7499 25.3618 32.001 25.3618 29.8436C25.3618 27.0747 23.3979 24.5706 20.3618 22.9893C17.3257 24.5706 15.3618 27.0747 15.3618 29.8436C15.3618 32.001 17.1107 33.7499 19.2681 33.7499H21.4556Z" fill="#FFB400"/>
<path fill-rule="evenodd" clip-rule="evenodd" d="M18.0528 22.0351C16.4717 21.5321 14.7138 21.25 12.8618 21.25C5.95824 21.25 0.361816 25.1695 0.361816 29.8438C0.361816 32.0011 2.1107 33.75 4.26807 33.75H14.838C13.9193 32.7089 13.3618 31.3414 13.3618 29.8438C13.3618 26.6531 15.2683 23.9587 17.8855 22.149C17.9408 22.1107 17.9966 22.0728 18.0528 22.0351ZM19.2681 33.75H21.4556C23.6129 33.75 25.3618 32.0011 25.3618 29.8438C25.3618 27.0748 23.3979 24.5707 20.3618 22.9894C17.3257 24.5707 15.3618 27.0748 15.3618 29.8438C15.3618 32.0011 17.1107 33.75 19.2681 33.75ZM6.79775 11.2472C6.69597 7.82747 9.44053 5 12.8618 5C16.2831 5 19.0277 7.82746 18.9259 11.2472L18.8955 12.2682C18.7984 15.5306 16.1257 18.125 12.8618 18.125C9.59795 18.125 6.92523 15.5306 6.82813 12.2682L6.79775 11.2472Z" fill="#FFB400"/>
</g>
<defs>
<clipPath id="clip0_218_31">
<rect width="40" height="40" fill="white" transform="translate(0.361816)"/>
</clipPath>
</defs>
</svg>
