<svg width="41" height="40" viewBox="0 0 41 40" fill="none" xmlns="http://www.w3.org/2000/svg">
<path fill-rule="evenodd" clip-rule="evenodd" d="M37.4452 12.2642L32.584 3.77358C32.0285 2.92453 31.1952 2.5 30.084 2.5H20.5007C19.5285 2.5 18.6952 3.06604 18.1396 3.91509L13.2785 12.4057C12.7229 13.2547 12.7229 14.3868 13.2785 15.2358L18.1396 23.5849C18.5563 24.434 19.5285 25 20.5007 25H30.2229C31.1952 25 32.0285 24.434 32.584 23.5849L37.4452 15.0943C38.0007 14.2453 38.0007 13.1132 37.4452 12.2642ZM29.1118 13.75C29.1118 15.8211 27.4329 17.5 25.3618 17.5C23.2907 17.5 21.6118 15.8211 21.6118 13.75C21.6118 11.6789 23.2907 10 25.3618 10C27.4329 10 29.1118 11.6789 29.1118 13.75Z" fill="#FFCE65"/>
<path fill-rule="evenodd" clip-rule="evenodd" d="M11.0141 15H10.0734C7.54908 15 6.28694 15 5.3228 15.4913C4.47471 15.9234 3.78519 16.6129 3.35307 17.461C2.86182 18.4251 2.86182 19.6873 2.86182 22.2115V30.2885C2.86182 32.8127 2.86182 34.0749 3.35307 35.039C3.78519 35.8871 4.47471 36.5766 5.3228 37.0087C6.28694 37.5 7.54908 37.5 10.0734 37.5H18.1503C20.6746 37.5 21.9367 37.5 22.9008 37.0087C23.7489 36.5766 24.4384 35.8871 24.8706 35.039C25.3618 34.0749 25.3618 32.8127 25.3618 30.2885V27H20.5007C18.8587 27 17.1785 26.0873 16.3811 24.5396L11.5725 16.2807C11.318 15.8802 11.1319 15.4476 11.0141 15ZM13.1419 15C13.1829 15.0806 13.2285 15.1594 13.2785 15.2358L18.1396 23.5849C18.5563 24.434 19.5285 25 20.5007 25H25.3618V22.2115C25.3618 19.6939 25.3618 18.4318 24.8744 17.4686C23.5156 17.2923 22.3851 16.3885 21.8862 15.1608C21.0299 15 19.8898 15 18.1503 15H13.1419Z" fill="#FFB400"/>
</svg>
