<svg width="41" height="40" viewBox="0 0 41 40" fill="none" xmlns="http://www.w3.org/2000/svg">
<path d="M21.8624 18.8943L38.7949 9.60498L30.8615 8.16965L28.0703 0.605957L21.8624 18.8943Z" fill="#FFCE65"/>
<path fill-rule="evenodd" clip-rule="evenodd" d="M23.5155 7.80186C21.938 7.28155 20.2519 7 18.5 7C9.66344 7 2.5 14.1634 2.5 23C2.5 31.8366 9.66344 39 18.5 39C27.3366 39 34.5 31.8366 34.5 23C34.5 20.2162 33.7891 17.5984 32.5388 15.3184L18.3154 23.1215L23.5155 7.80186ZM25.3744 8.54792L21.8623 18.8944L31.4672 13.6251C29.901 11.4625 27.8071 9.70714 25.3744 8.54792Z" fill="#FFB400"/>
<circle cx="18.5" cy="23" r="11" stroke="white" stroke-width="2"/>
<circle cx="18.5" cy="23" r="5" stroke="white" stroke-width="2"/>
</svg>
