<svg width="40" height="40" viewBox="0 0 40 40" fill="none" xmlns="http://www.w3.org/2000/svg">
<ellipse cx="20" cy="19.9742" rx="20" ry="19.9742" fill="#FFB400"/>
<path d="M9.5 15.125C9.5 13.676 10.676 12.5 12.125 12.5H27.875C29.324 12.5 30.5 13.676 30.5 15.125V24.875C30.5 25.5712 30.2234 26.2389 29.7312 26.7312C29.2389 27.2234 28.5712 27.5 27.875 27.5H12.125C11.4288 27.5 10.7611 27.2234 10.2688 26.7312C9.77656 26.2389 9.5 25.5712 9.5 24.875V15.125ZM15.8915 19.571C16.1588 19.571 16.4235 19.5184 16.6705 19.4161C16.9174 19.3138 17.1418 19.1638 17.3308 18.9748C17.5198 18.7858 17.6698 18.5614 17.7721 18.3145C17.8744 18.0675 17.927 17.8028 17.927 17.5355C17.927 17.2682 17.8744 17.0035 17.7721 16.7565C17.6698 16.5096 17.5198 16.2852 17.3308 16.0962C17.1418 15.9072 16.9174 15.7572 16.6705 15.6549C16.4235 15.5526 16.1588 15.5 15.8915 15.5C15.3517 15.5 14.8339 15.7145 14.4522 16.0962C14.0705 16.4779 13.856 16.9957 13.856 17.5355C13.856 18.0753 14.0705 18.5931 14.4522 18.9748C14.8339 19.3565 15.3517 19.571 15.8915 19.571ZM13.787 20.588C13.4457 20.588 13.1183 20.7236 12.877 20.965C12.6356 21.2063 12.5 21.5337 12.5 21.875C12.5 22.4336 12.6868 22.9762 13.0306 23.4165C13.3744 23.8568 13.8556 24.1695 14.3975 24.305L14.477 24.326C15.407 24.5585 16.3775 24.5585 17.306 24.326L17.387 24.3065C17.9289 24.171 18.4101 23.8583 18.7539 23.418C19.0977 22.9777 19.2845 22.4351 19.2845 21.8765C19.2847 21.7074 19.2516 21.5398 19.187 21.3835C19.1224 21.2272 19.0276 21.0852 18.9081 20.9655C18.7885 20.8458 18.6466 20.7509 18.4904 20.6861C18.3341 20.6213 18.1666 20.588 17.9975 20.588H13.787ZM22.25 17C22.0511 17 21.8603 17.079 21.7197 17.2197C21.579 17.3603 21.5 17.5511 21.5 17.75C21.5 17.9489 21.579 18.1397 21.7197 18.2803C21.8603 18.421 22.0511 18.5 22.25 18.5H26.75C26.9489 18.5 27.1397 18.421 27.2803 18.2803C27.421 18.1397 27.5 17.9489 27.5 17.75C27.5 17.5511 27.421 17.3603 27.2803 17.2197C27.1397 17.079 26.9489 17 26.75 17H22.25ZM22.25 21.5C22.0511 21.5 21.8603 21.579 21.7197 21.7197C21.579 21.8603 21.5 22.0511 21.5 22.25C21.5 22.4489 21.579 22.6397 21.7197 22.7803C21.8603 22.921 22.0511 23 22.25 23H26.75C26.9489 23 27.1397 22.921 27.2803 22.7803C27.421 22.6397 27.5 22.4489 27.5 22.25C27.5 22.0511 27.421 21.8603 27.2803 21.7197C27.1397 21.579 26.9489 21.5 26.75 21.5H22.25Z" fill="#0D0D0D"/>
</svg>
