<svg width="18" height="18" viewBox="0 0 18 18" fill="none" xmlns="http://www.w3.org/2000/svg">
<path fill-rule="evenodd" clip-rule="evenodd" d="M9 0C4.03125 0 0 4.03125 0 9C0 13.9688 4.03125 18 9 18C13.959 18 18 13.9688 18 9C18 4.03125 13.959 0 9 0ZM14.9445 4.14825C16.0526 5.49775 16.6658 7.18567 16.6823 8.93175C16.4287 8.883 13.8907 8.3655 11.3333 8.688C11.274 8.5605 11.2253 8.424 11.1667 8.2875C11.0077 7.91205 10.8386 7.54092 10.6597 7.1745C13.4903 6.0225 14.7788 4.3635 14.9445 4.14825ZM9 1.32825C10.9522 1.32825 12.7388 2.0595 14.0955 3.26025C13.959 3.45525 12.7972 5.00775 10.0642 6.03225C8.80425 3.71925 7.40925 1.82475 7.194 1.53225C7.78599 1.39402 8.39209 1.3253 9 1.3275V1.32825ZM5.73 2.04975C5.93475 2.3235 7.30125 4.227 8.58 6.49125C4.9875 7.44825 1.815 7.42875 1.47375 7.42875C1.97175 5.04675 3.58275 3.06525 5.73 2.04975ZM1.308 9.00975V8.77575C1.64025 8.7855 5.3685 8.83425 9.2055 7.68225C9.42975 8.112 9.6345 8.55075 9.8295 8.99025C9.732 9.0195 9.62475 9.04875 9.52725 9.078C5.56425 10.3568 3.45525 13.851 3.27975 14.1442C2.01031 12.7354 1.30785 10.9062 1.308 9.00975ZM9 16.692C7.22325 16.692 5.58375 16.0868 4.2855 15.072C4.422 14.7885 5.9835 11.7818 10.3177 10.269C10.3372 10.2593 10.3477 10.2593 10.3665 10.2495C11.4502 13.0507 11.889 15.4035 12.0068 16.077C11.079 16.4775 10.0642 16.692 9 16.692ZM13.2855 15.3743C13.2075 14.9055 12.7972 12.6607 11.7915 9.89775C14.2028 9.5175 16.311 10.1423 16.575 10.23C16.2428 12.3675 15.0128 14.2125 13.2855 15.3743Z" fill="black"/>
</svg>
