<svg width="24" height="24" viewBox="0 0 24 24" fill="none" xmlns="http://www.w3.org/2000/svg">
<g clip-path="url(#clip0_214_118)">
<rect x="11.9277" y="-0.558105" width="16.549" height="17.0666" rx="4" transform="rotate(45 11.9277 -0.558105)" fill="#0D0D0D"/>
<path d="M23.5463 10.9303L13.0673 0.45279C12.9238 0.309243 12.7534 0.195371 12.5659 0.117679C12.3784 0.0399879 12.1775 0 11.9745 0C11.7716 0 11.5706 0.0399879 11.3831 0.117679C11.1956 0.195371 11.0252 0.309243 10.8818 0.45279L8.70677 2.62779L11.4668 5.38779C11.7923 5.27665 12.1425 5.25927 12.4774 5.33761C12.8123 5.41596 13.1184 5.58689 13.3609 5.83088C13.6033 6.07487 13.7722 6.38211 13.8484 6.71752C13.9246 7.05293 13.905 7.40301 13.7918 7.72779L16.4513 10.3888C16.8447 10.2503 17.2737 10.2498 17.6674 10.3876C18.0611 10.5254 18.3962 10.7931 18.6175 11.1467C18.8387 11.5004 18.933 11.9188 18.8847 12.3331C18.8364 12.7475 18.6484 13.133 18.3518 13.4263C18.0514 13.7285 17.6555 13.917 17.2316 13.9597C16.8078 14.0023 16.3822 13.8965 16.0277 13.6603C15.6732 13.424 15.4116 13.0721 15.2878 12.6644C15.164 12.2568 15.1855 11.8188 15.3488 11.4253L12.8693 8.94429V15.4738C13.2462 15.6603 13.5477 15.9704 13.7237 16.3524C13.8997 16.7343 13.9394 17.165 13.8363 17.5727C13.7332 17.9804 13.4935 18.3405 13.1572 18.5929C12.8208 18.8453 12.4081 18.9748 11.9878 18.9598C11.5675 18.9447 11.1651 18.7861 10.8476 18.5104C10.5301 18.2347 10.3167 17.8584 10.2429 17.4444C10.1692 17.0304 10.2396 16.6036 10.4423 16.2352C10.6451 15.8668 10.968 15.579 11.3573 15.4198V8.83029C11.1327 8.73827 10.9286 8.60272 10.7566 8.43143C10.5847 8.26015 10.4484 8.05653 10.3555 7.83231C10.2626 7.6081 10.2151 7.36771 10.2156 7.12503C10.216 6.88234 10.2645 6.64214 10.3583 6.41829L7.63877 3.69729L0.453767 10.8823C0.310219 11.0258 0.196347 11.1961 0.118656 11.3836C0.0409645 11.5711 0.000976563 11.7721 0.000976562 11.975C0.000976563 12.178 0.0409645 12.379 0.118656 12.5665C0.196347 12.754 0.310219 12.9243 0.453767 13.0678L10.9328 23.5468C11.0762 23.6903 11.2466 23.8042 11.4341 23.8819C11.6216 23.9596 11.8226 23.9996 12.0255 23.9996C12.2285 23.9996 12.4294 23.9596 12.6169 23.8819C12.8044 23.8042 12.9748 23.6903 13.1183 23.5468L23.5478 13.1173C23.8373 12.8273 23.9999 12.4343 23.9999 12.0245C23.9999 11.6148 23.8373 11.2218 23.5478 10.9318" fill="#FFB400"/>
</g>
<defs>
<clipPath id="clip0_214_118">
<rect width="24" height="24" fill="white"/>
</clipPath>
</defs>
</svg>
