<svg width="24" height="24" viewBox="0 0 24 24" fill="none" xmlns="http://www.w3.org/2000/svg">
<rect width="24" height="24" rx="12" fill="#FFB400"/>
<path d="M12.868 7.73405C12.4493 6.71537 12.508 5.56936 13.1127 4.64734L13.5647 4C12.7287 5.56669 13.5247 7.49072 14.8047 8.4994C15.1472 8.76747 15.5291 8.9811 15.9367 9.13274C16.0461 9.17274 16.1701 9.21541 16.2834 9.24408C17.7141 9.60408 18.8801 9.35541 19.5741 8.31806C19.5528 8.35006 19.5255 8.40073 19.4908 8.46473C19.1814 9.03807 18.2761 10.7161 15.6507 10.1894C15.6007 10.1794 15.5527 10.1628 15.5047 10.1474L15.4621 10.1328L15.4314 10.1228C15.4172 10.1179 15.403 10.1132 15.3887 10.1088C15.3498 10.0954 15.3112 10.0814 15.2727 10.0668C14.216 9.66408 13.31 8.81607 12.868 7.73405Z" fill="#0D0D0D"/>
<path d="M9.41387 5.97717C8.38919 7.50719 8.44519 9.55589 9.24453 11.1746C9.39233 11.4758 9.56213 11.7657 9.75254 12.0419C9.89188 12.2506 10.0452 12.4819 10.2245 12.6433C10.2985 12.7279 10.3759 12.8099 10.4546 12.8906L10.4999 12.9373L10.5152 12.9526C10.5948 13.0331 10.6764 13.1115 10.7599 13.1879L10.7606 13.1886L10.7619 13.1899C10.8627 13.2811 10.966 13.3694 11.0719 13.4546L11.0986 13.4759C11.1919 13.5506 11.2872 13.6239 11.3852 13.6939L11.3892 13.6966L11.3939 13.7C11.4252 13.7226 11.4572 13.7446 11.4892 13.766L11.5246 13.79C11.5455 13.8038 11.5662 13.818 11.5866 13.8326C11.6566 13.8793 11.7272 13.924 11.7992 13.968L11.8192 13.9793L11.8292 13.986C11.9064 14.032 11.9845 14.0767 12.0632 14.12L12.0839 14.1306L12.1106 14.1453C12.1452 14.164 12.1799 14.1833 12.2159 14.2013L12.2359 14.2113C12.339 14.2638 12.4435 14.3136 12.5492 14.3606L12.5706 14.3693C12.6698 14.413 12.7701 14.4543 12.8713 14.4933L12.8913 14.5006C12.9599 14.5273 13.0286 14.5513 13.0979 14.5753L13.1326 14.5873L13.1913 14.6066C13.2173 14.6146 13.2433 14.624 13.2686 14.6326C13.3413 14.658 13.4139 14.6826 13.4899 14.696C18.7793 15.6053 20.0007 11.3786 20.0007 11.3786C18.9 13.0239 16.768 13.8093 14.4933 13.1959C14.3926 13.1684 14.2925 13.1384 14.1933 13.1059C14.1666 13.0979 14.1399 13.0886 14.1133 13.0793L14.1033 13.0759C14.033 13.0524 13.9632 13.0275 13.8939 13.0013L13.8919 12.9999C13.7769 12.9564 13.6631 12.9097 13.5506 12.8599L13.5133 12.8433C13.3822 12.784 13.2532 12.7202 13.1266 12.6519L13.0986 12.6373L13.0186 12.5946C12.9455 12.5538 12.8733 12.5116 12.8019 12.4679C12.6609 12.3818 12.523 12.2906 12.3886 12.1946C12.2915 12.1245 12.1961 12.052 12.1026 11.9773L12.0792 11.9579C12.0656 11.9469 12.0521 11.9358 12.0386 11.9246C11.0426 11.1086 10.2532 9.99323 9.87854 8.72921C9.4852 7.41719 9.56987 5.94517 10.2512 4.75049L9.41387 5.97717Z" fill="#0D0D0D"/>
<path d="M5.01627 7.75827C3.60024 9.87163 3.77625 12.6217 4.85826 14.867C4.87826 14.9104 4.90026 14.953 4.9216 14.995L4.9376 15.027L4.9576 15.0664C4.97437 15.1013 4.99215 15.1358 5.01093 15.1697L5.0196 15.1864L5.06627 15.273L5.07627 15.291C5.1096 15.3524 5.14427 15.4137 5.1796 15.475L5.19093 15.495C5.24436 15.5882 5.30016 15.68 5.35827 15.7704L5.37027 15.7904L5.4096 15.8524C5.4656 15.9391 5.52294 16.0264 5.58294 16.1124V16.1131C5.58436 16.1152 5.58592 16.1172 5.58761 16.1191L5.60361 16.1411L5.61694 16.1597C5.66894 16.2331 5.72161 16.3064 5.77561 16.3784L5.83561 16.4571C5.96629 16.6264 6.10145 16.7922 6.24095 16.9544L6.24495 16.9591L6.24828 16.9624L6.25295 16.9677C6.39439 17.1271 6.54068 17.282 6.69162 17.4324L6.71162 17.4524L6.75896 17.4991C6.83451 17.5729 6.91141 17.6454 6.98963 17.7164L7.01163 17.7364L7.02896 17.7511C7.1124 17.8256 7.19685 17.8989 7.2823 17.9711L7.31963 18.0024C7.3763 18.0491 7.43363 18.0957 7.49163 18.1411L7.58297 18.2138C7.64697 18.2624 7.71097 18.3104 7.77564 18.3571L7.7863 18.3651L7.84631 18.4091L7.86497 18.4224C7.92364 18.4651 7.98297 18.5051 8.04298 18.5451L8.05231 18.5518C8.07921 18.5699 8.10588 18.5883 8.13231 18.6071C8.2436 18.6801 8.35629 18.751 8.47031 18.8198L8.50631 18.8411C8.60726 18.9007 8.70928 18.9585 8.81232 19.0144L8.84765 19.0338L8.88699 19.0551C8.92632 19.0764 8.96499 19.0978 9.00499 19.1184L9.02166 19.1264L9.04166 19.1364L9.06432 19.1478C9.07766 19.1544 9.09166 19.1611 9.10566 19.1691C9.18832 19.2098 9.27099 19.2498 9.35499 19.2891L9.38633 19.3031L9.40766 19.3131C9.61599 19.408 9.82793 19.4947 10.043 19.5731L10.0497 19.5751L10.0777 19.5858C10.2297 19.6404 10.383 19.6911 10.5377 19.7378C10.615 19.7638 10.693 19.7891 10.773 19.8044C17.6244 21.1018 19.6145 15.531 19.6145 15.531C17.9431 17.7911 14.9764 18.3878 12.165 17.7237C12.0593 17.6981 11.9547 17.6676 11.8517 17.6324L11.773 17.6077C11.6717 17.5757 11.571 17.5411 11.471 17.5057L11.4297 17.4904C11.3397 17.4571 11.2517 17.4237 11.163 17.3877L11.0884 17.3571C10.9917 17.3171 10.8957 17.2764 10.801 17.2331L10.7703 17.2197C10.68 17.1778 10.5902 17.1347 10.501 17.0904L10.4737 17.0757C10.4594 17.0689 10.4452 17.062 10.431 17.0551L10.2883 16.9797L10.243 16.9557C10.2282 16.9476 10.2133 16.9396 10.1983 16.9317L10.1183 16.8877C10.0423 16.8457 9.96767 16.8011 9.893 16.7564L9.86433 16.7397L9.81767 16.7131C9.70161 16.6415 9.58692 16.5677 9.47366 16.4917L9.44499 16.4717C9.16047 16.282 8.88774 16.0752 8.62832 15.8524C8.54905 15.7854 8.47082 15.7171 8.39365 15.6477L8.38298 15.6377C8.28164 15.5445 8.18206 15.4494 8.08431 15.3524C8.02785 15.2966 7.97229 15.2399 7.91764 15.1824L7.89497 15.1597C7.80863 15.0695 7.72416 14.9774 7.64164 14.8837L7.63764 14.8797L7.6363 14.8777C7.56563 14.7977 7.4963 14.715 7.4283 14.6324L7.37363 14.565C7.30384 14.4785 7.23561 14.3907 7.16896 14.3017C7.11029 14.2217 7.05229 14.143 6.99563 14.0624C5.4356 11.853 4.87493 8.80495 6.12228 6.30225L5.01627 7.75827Z" fill="#0D0D0D"/>
</svg>
