<svg width="24" height="24" viewBox="0 0 24 24" fill="none" xmlns="http://www.w3.org/2000/svg">
<rect width="24" height="24" rx="12" fill="#FFB400"/>
<path d="M12.0001 21.9851C11.7251 21.9851 11.4681 21.9111 11.2281 21.7831L8.78909 20.3351C8.42409 20.1321 8.60709 20.0581 8.71709 20.0211C9.21309 19.8561 9.30509 19.8201 9.81809 19.5281C9.87409 19.4911 9.94709 19.5081 10.0031 19.5451L11.8731 20.6651C11.9471 20.7011 12.0391 20.7011 12.0941 20.6651L19.4131 16.4281C19.4871 16.3921 19.5231 16.3181 19.5231 16.2261V7.76807C19.5231 7.67707 19.4871 7.60307 19.4131 7.56707L12.0941 3.34807C12.0211 3.31107 11.9291 3.31107 11.8731 3.34807L4.55209 7.56607C4.47909 7.60207 4.44209 7.69507 4.44209 7.76707V16.2241C4.44209 16.2971 4.47909 16.3901 4.55209 16.4261L6.55209 17.5831C7.63409 18.1311 8.31409 17.4881 8.31409 16.8481V8.50207C8.31409 8.39207 8.40509 8.28107 8.53409 8.28107H9.47009C9.57809 8.28107 9.69009 8.37307 9.69009 8.50207V16.8491C9.69009 18.2981 8.90209 19.1431 7.52609 19.1431C7.10409 19.1431 6.77409 19.1431 5.83809 18.6831L3.91309 17.5841C3.67855 17.4477 3.4839 17.2522 3.3486 17.0171C3.2133 16.7819 3.14209 16.5154 3.14209 16.2441V7.78607C3.14209 7.23607 3.43509 6.72207 3.91309 6.44707L11.2291 2.21007C11.4666 2.08305 11.7318 2.0166 12.0011 2.0166C12.2704 2.0166 12.5356 2.08305 12.7731 2.21007L20.0901 6.44707C20.5691 6.72107 20.8611 7.23607 20.8611 7.78607V16.2441C20.8611 16.7931 20.5681 17.3071 20.0901 17.5841L12.7731 21.8201C12.5321 21.9301 12.2571 21.9851 12.0001 21.9851ZM14.2561 16.1691C11.0461 16.1691 10.3861 14.7011 10.3861 13.4551C10.3861 13.3451 10.4781 13.2341 10.6061 13.2341H11.5601C11.6701 13.2341 11.7611 13.3071 11.7611 13.4181C11.9081 14.3891 12.3291 14.8671 14.2751 14.8671C15.8151 14.8671 16.4771 14.5171 16.4771 13.6921C16.4771 13.2151 16.2921 12.8671 13.8901 12.6291C11.8911 12.4291 10.6441 11.9861 10.6441 10.3911C10.6441 8.90607 11.8911 8.02507 13.9831 8.02507C16.3301 8.02507 17.4861 8.83407 17.6321 10.5931C17.6303 10.6524 17.6108 10.7099 17.5761 10.7581C17.5391 10.7941 17.4851 10.8311 17.4301 10.8311H16.4771C16.43 10.8301 16.3846 10.8134 16.348 10.7837C16.3114 10.754 16.2857 10.713 16.2751 10.6671C16.0541 9.65507 15.4861 9.32707 13.9831 9.32707C12.2941 9.32707 12.0921 9.91407 12.0921 10.3541C12.0921 10.8851 12.3291 11.0501 14.6061 11.3441C16.8621 11.6371 17.9261 12.0591 17.9261 13.6381C17.9061 15.2531 16.5871 16.1691 14.2561 16.1691Z" fill="#0D0D0D"/>
</svg>
