<svg width="24" height="24" viewBox="0 0 24 24" fill="none" xmlns="http://www.w3.org/2000/svg">
<rect width="24" height="24" rx="12" fill="#FFB400"/>
<path d="M22 11.9075C22 10.5825 20.3408 9.32667 17.7967 8.54833C18.3842 5.95583 18.1233 3.8925 16.9733 3.23167C16.6947 3.0756 16.3793 2.99704 16.06 3.00417V3.9125C16.2475 3.9125 16.3983 3.95 16.525 4.01917C17.0792 4.3375 17.32 5.5475 17.1325 7.105C17.0875 7.48833 17.0142 7.89167 16.9242 8.30333C16.0722 8.09803 15.2075 7.94965 14.3358 7.85917C13.8165 7.14274 13.25 6.46178 12.64 5.82083C13.9692 4.58583 15.2167 3.90917 16.065 3.90917V3C14.9433 3 13.4758 3.79917 11.9917 5.185C10.5083 3.80833 9.04 3.01667 7.91917 3.01667V3.925C8.76333 3.925 10.015 4.59833 11.3442 5.825C10.7733 6.425 10.2025 7.105 9.66 7.85917C8.78653 7.94864 7.92029 8.09845 7.0675 8.3075C6.97333 7.9 6.90417 7.505 6.855 7.12583C6.66333 5.5675 6.9 4.3575 7.45083 4.03583C7.5725 3.9625 7.73167 3.92917 7.91917 3.92917V3.02083C7.5775 3.02083 7.26667 3.09417 6.99833 3.24833C5.8525 3.90917 5.59583 5.9675 6.18667 8.5525C3.65083 9.33583 2 10.5867 2 11.9075C2 13.2325 3.65917 14.4883 6.20333 15.2658C5.61583 17.8592 5.87667 19.9225 7.02667 20.5825C7.29167 20.7375 7.60167 20.8108 7.94333 20.8108C9.065 20.8108 10.5325 20.0117 12.0167 18.6258C13.5 20.0033 14.9675 20.7942 16.0892 20.7942C16.4109 20.801 16.7287 20.7222 17.01 20.5658C18.1558 19.9058 18.4125 17.8475 17.8217 15.2625C20.3492 14.4842 22 13.2283 22 11.9075ZM16.6917 9.18833C16.5333 9.73321 16.3498 10.2705 16.1417 10.7983C15.801 10.1356 15.4269 9.49063 15.0208 8.86583C15.6 8.95167 16.1583 9.0575 16.6925 9.18833H16.6917ZM14.825 13.53C14.5075 14.08 14.1808 14.6025 13.8425 15.0875C12.6194 15.1953 11.3892 15.1967 10.1658 15.0917C9.46412 14.0893 8.85045 13.0281 8.33167 11.92C8.84965 10.8093 9.46072 9.74434 10.1583 8.73667C11.3812 8.62864 12.6111 8.62697 13.8342 8.73167C14.1725 9.21667 14.5033 9.735 14.8208 10.2817C15.1308 10.815 15.4125 11.3567 15.6692 11.9033C15.4097 12.4566 15.128 12.9993 14.825 13.53ZM16.1417 13C16.3617 13.5458 16.55 14.0925 16.7042 14.6225C16.1708 14.7533 15.6075 14.8633 15.025 14.9483C15.4294 14.3178 15.8021 13.6676 16.1417 13ZM12.0083 17.35C11.6292 16.9583 11.25 16.5225 10.875 16.045C11.2417 16.0617 11.6167 16.0742 11.9958 16.0742C12.3792 16.0742 12.7583 16.0658 13.1292 16.045C12.7625 16.5225 12.3833 16.9583 12.0083 17.35ZM8.975 14.9483C8.41312 14.8669 7.8553 14.7596 7.30333 14.6267C7.45417 14.1008 7.64167 13.5583 7.85333 13.0167C8.02083 13.3417 8.19667 13.6683 8.38833 13.995C8.58 14.3208 8.775 14.6392 8.975 14.9483ZM11.9875 6.465C12.3667 6.85667 12.7458 7.2925 13.1208 7.77C12.7542 7.75333 12.3792 7.74083 12 7.74083C11.6167 7.74083 11.2375 7.74917 10.8667 7.77C11.2333 7.2925 11.6125 6.85667 11.9875 6.465ZM8.97083 8.86667C8.56656 9.49578 8.19387 10.1446 7.85417 10.8108C7.64018 10.2795 7.45245 9.73806 7.29167 9.18833C7.825 9.06167 8.38833 8.95167 8.97083 8.86667ZM5.28167 13.97C3.83833 13.355 2.905 12.5475 2.905 11.9075C2.905 11.2675 3.83833 10.4558 5.28167 9.845C5.63167 9.69417 6.015 9.55917 6.41083 9.43333C6.64333 10.2317 6.94917 11.0633 7.3275 11.9158C6.9703 12.7177 6.66821 13.5429 6.42333 14.3858C6.03621 14.266 5.6552 14.1272 5.28167 13.97ZM7.475 19.795C6.92083 19.4783 6.68 18.2667 6.8675 16.71C6.9125 16.3267 6.98583 15.9225 7.07583 15.5108C7.87417 15.7067 8.74667 15.8575 9.66417 15.9558C10.1835 16.6722 10.75 17.3532 11.36 17.9942C10.0308 19.2292 8.78333 19.9058 7.935 19.9058C7.77495 19.9076 7.61694 19.8698 7.475 19.7958V19.795ZM17.145 16.6892C17.3367 18.2467 17.1 19.4575 16.5492 19.7792C16.4275 19.8525 16.2683 19.885 16.0808 19.885C15.2367 19.885 13.985 19.2125 12.6558 17.985C13.2267 17.3867 13.7975 16.7058 14.34 15.9517C15.2135 15.8622 16.0797 15.7124 16.9325 15.5033C17.0267 15.915 17.0992 16.31 17.145 16.6892ZM18.7142 13.97C18.3642 14.1208 17.9808 14.2558 17.585 14.3817C17.3358 13.5344 17.0296 12.705 16.6683 11.8992C17.0433 11.0517 17.3442 10.2242 17.5725 9.42917C17.9767 9.555 18.3592 9.69417 18.7183 9.845C20.1617 10.46 21.095 11.2675 21.095 11.9075C21.0908 12.5475 20.1575 13.3592 18.7142 13.97Z" fill="#0D0D0D"/>
<path d="M11.9957 13.7711C12.4898 13.7711 12.9638 13.5748 13.3132 13.2253C13.6627 12.8759 13.859 12.402 13.859 11.9078C13.859 11.4136 13.6627 10.9396 13.3132 10.5902C12.9638 10.2407 12.4898 10.0444 11.9957 10.0444C11.5015 10.0444 11.0275 10.2407 10.6781 10.5902C10.3286 10.9396 10.1323 11.4136 10.1323 11.9078C10.1323 12.402 10.3286 12.8759 10.6781 13.2253C11.0275 13.5748 11.5015 13.7711 11.9957 13.7711Z" fill="#0D0D0D"/>
</svg>
