<svg width="24" height="27" viewBox="0 0 24 27" fill="none" xmlns="http://www.w3.org/2000/svg">
<path d="M12 0.00537109L24 6.74653V20.2332L12 26.9744L0 20.2332V6.74653L12 0.00537109Z" fill="white"/>
<path d="M21.858 19.765L12.3984 25.0849V20.9477L18.2943 17.7233L21.858 19.765ZM22.5055 19.1848V8.0681L19.046 10.0512V17.2015L22.5055 19.1848ZM2.10554 19.7649L11.5652 25.0805V20.9432L5.66935 17.7233L2.10554 19.765V19.7649ZM1.45801 19.1848V8.0681L4.91766 10.0512V17.2015L1.45801 19.1848ZM1.86113 7.3486L11.5652 1.89804V5.90056L5.34788 9.29576L5.29801 9.32276L1.86113 7.3485V7.3486ZM22.098 7.3486L12.3984 1.89795V5.90047L18.6113 9.30014L18.661 9.32714L22.098 7.34841V7.3486Z" fill="#8ED6FB"/>
<path d="M11.5654 20.003L5.75098 16.8236V10.5322L11.5654 13.8645V20.003ZM12.3986 20.003L18.213 16.8281V10.5322L12.3986 13.8645V20.003ZM6.14041 9.80365L11.982 6.61523L17.8189 9.80365L11.982 13.1495L6.14041 9.80365Z" fill="#1C78C0"/>
</svg>
